<svg xmlns="http://www.w3.org/2000/svg" xmlns:xlink="http://www.w3.org/1999/xlink" width="860" height="624.46"><rect width="860" height="624.46" rx="5" ry="5" class="a"/><svg y="0%" x="0%"><circle cx="20" cy="20" r="6" fill="#ff5f58"/><circle cx="40" cy="20" r="6" fill="#ffbd2e"/><circle cx="60" cy="20" r="6" fill="#18c132"/></svg><svg height="564.46" viewBox="0 0 82 56.446" width="820" x="15" xmlns="http://www.w3.org/2000/svg" xmlns:xlink="http://www.w3.org/1999/xlink" y="50"><style>@keyframes q{0%{transform:translateX(0)}.6%{transform:translateX(-82px)}5.5%{transform:translateX(-164px)}8.5%{transform:translateX(-246px)}12.1%{transform:translateX(-328px)}17%{transform:translateX(-410px)}20.6%{transform:translateX(-492px)}27.9%{transform:translateX(-574px)}32.1%{transform:translateX(-656px)}35.2%{transform:translateX(-738px)}38.8%{transform:translateX(-820px)}42.4%{transform:translateX(-902px)}44.2%{transform:translateX(-984px)}46.1%{transform:translateX(-1066px)}47.9%{transform:translateX(-1148px)}52.1%{transform:translateX(-1230px)}59.4%{transform:translateX(-1312px)}63.6%{transform:translateX(-1394px)}66.7%{transform:translateX(-1476px)}70.3%{transform:translateX(-1558px)}75.2%{transform:translateX(-1640px)}80%{transform:translateX(-1722px)}83.6%{transform:translateX(-1804px)}89.7%{transform:translateX(-1886px)}to{transform:translateX(-1968px)}}.a{fill:#282d35}.f,.g,.h,.i{white-space:pre}.f{fill:#a8cc8c;font-weight:700}.g,.h,.i{fill:#b9c0cb}.h,.i{font-weight:700}.i{fill:#66c2cd}.j{fill:#a8cc8c}.j,.l,.m{white-space:pre}.l{fill:#d290e4;font-weight:700}.m{fill:#66c2cd}</style><g font-family="Monaco,Consolas,Menlo,'Bitstream Vera Sans Mono','Powerline Symbols',monospace" font-size="1.67"><defs><symbol id="1"><text y="1.67" class="f">~/my-project</text><text x="13.026" y="1.67" class="g">$</text></symbol><symbol id="2"><text y="1.67" class="f">~/my-project</text><text x="13.026" y="1.67" class="g">$</text><text x="15.03" y="1.67" class="h">skillhub</text><text x="24.048" y="1.67" class="h">install</text><text x="32.064" y="1.67" class="h">research-agent</text></symbol><symbol id="3"><text y="1.67" class="g">Installing</text><text x="11.022" y="1.67" class="g">research-agent</text><text x="26.052" y="1.67" class="g">for</text><text x="30.06" y="1.67" class="i">Claude</text><text x="37.074" y="1.67" class="i">Code</text><text x="41.082" y="1.67" class="g">...</text></symbol><symbol id="4"><text x="2.004" y="1.67" class="j">✓</text><text x="4.008" y="1.67" class="g">Claude</text><text x="11.022" y="1.67" class="g">Code</text><text x="17.034" y="1.67" class="g">→</text><text x="20.04" y="1.67" class="g">.claude/commands/research-agent.md</text></symbol><symbol id="5"><text y="1.67" class="h">Done!</text><text x="6.012" y="1.67" class="g">Skill</text><text x="12.024" y="1.67" class="g">research-agent</text><text x="27.054" y="1.67" class="g">is</text><text x="30.06" y="1.67" class="g">ready.</text></symbol><symbol id="6"><text y="1.67" class="f">~/my-project</text><text x="13.026" y="1.67" class="g">$</text><text x="15.03" y="1.67" class="h">skillhub</text><text x="24.048" y="1.67" class="h">install</text><text x="32.064" y="1.67" class="h">debug-agent</text><text x="44.088" y="1.67" class="h">--all-agents</text></symbol><symbol id="7"><text y="1.67" class="g">Installing</text><text x="11.022" y="1.67" class="g">debug-agent</text><text x="23.046" y="1.67" class="g">for</text><text x="27.054" y="1.67" class="h">all</text><text x="31.062" y="1.67" class="h">agents</text><text x="37.074" y="1.67" class="g">...</text></symbol><symbol id="8"><text x="2.004" y="1.67" class="j">✓</text><text x="4.008" y="1.67" class="i">Claude</text><text x="11.022" y="1.67" class="i">Code</text><text x="17.034" y="1.67" class="g">→</text><text x="20.04" y="1.67" class="g">.claude/commands/debug-agent.md</text></symbol><symbol id="9"><text x="2.004" y="1.67" class="j">✓</text><text x="4.008" y="1.67" style="white-space:pre" fill="#dbab79" font-weight="700">Cursor</text><text x="16.032" y="1.67" class="g">→</text><text x="19.038" y="1.67" class="g">.cursor/rules/debug-agent.mdc</text></symbol><symbol id="10"><text x="2.004" y="1.67" class="j">✓</text><text x="4.008" y="1.67" class="f">Codex</text><text x="16.032" y="1.67" class="g">→</text><text x="19.038" y="1.67" class="g">AGENTS.md</text></symbol><symbol id="11"><text x="2.004" y="1.67" class="j">✓</text><text x="4.008" y="1.67" class="l">Gemini</text><text x="11.022" y="1.67" class="l">CLI</text><text x="16.032" y="1.67" class="g">→</text><text x="19.038" y="1.67" class="g">.gemini/skills/debug-agent.md</text></symbol><symbol id="12"><text y="1.67" class="h">Done!</text><text x="6.012" y="1.67" class="g">Skill</text><text x="12.024" y="1.67" class="g">debug-agent</text><text x="24.048" y="1.67" class="g">is</text><text x="27.054" y="1.67" class="g">ready.</text></symbol><symbol id="13"><text y="1.67" class="f">~/my-project</text><text x="13.026" y="1.67" class="g">$</text><text x="15.03" y="1.67" class="h">skillhub</text><text x="24.048" y="1.67" class="h">compose</text><text x="32.064" y="1.67" class="h">research-agent</text><text x="47.094" y="1.67" class="h">code-reviewer</text><text x="61.122" y="1.67" class="h">-o</text><text x="64.128" y="1.67" class="h">smart-reviewer</text></symbol><symbol id="14"><text y="1.67" class="g">Composing</text><text x="10.02" y="1.67" class="m">research-agent</text><text x="25.05" y="1.67" class="g">+</text><text x="27.054" y="1.67" class="m">code-reviewer</text><text x="41.082" y="1.67" class="g">→</text><text x="43.086" y="1.67" class="h">smart-reviewer</text></symbol><symbol id="15"><text x="2.004" y="1.67" style="white-space:pre" fill="#dbab79">⚠</text><text x="5.01" y="1.67" class="g">Conflict</text><text x="14.028" y="1.67" class="g">resolved:</text><text x="24.048" y="1.67" class="g">&apos;When</text><text x="30.06" y="1.67" class="g">to</text><text x="33.066" y="1.67" class="g">Use&apos;</text><text x="38.076" y="1.67" class="g">→</text><text x="40.08" y="1.67" class="g">kept</text><text x="45.09" y="1.67" class="g">from</text><text x="50.1" y="1.67" class="g">research-agent</text></symbol><symbol id="16"><text x="2.004" y="1.67" class="j">✓</text><text x="4.008" y="1.67" class="g">Written</text><text x="12.024" y="1.67" class="g">to</text><text x="15.03" y="1.67" class="g">.claude/commands/smart-reviewer.md</text></symbol><symbol id="17"><text y="1.67" class="h">Done!</text><text x="6.012" y="1.67" class="g">Composed</text><text x="15.03" y="1.67" class="g">skill</text><text x="21.042" y="1.67" class="g">smart-reviewer</text><text x="36.072" y="1.67" class="g">is</text><text x="39.078" y="1.67" class="g">ready.</text></symbol><symbol id="a"><path fill="transparent" d="M0 0h82v27H0z"/></symbol><symbol id="b"><path fill="#6f7683" d="M0 0h1.102v2.171H0z"/></symbol></defs><path class="a" d="M0 0h82v56.446H0z"/><g style="animation-duration:16.5s;animation-iteration-count:infinite;animation-name:q;animation-timing-function:steps(1,end)"><svg width="2050"><svg><use xlink:href="#a"/><use xlink:href="#b" x="-.004"/></svg><svg x="82"><use xlink:href="#a"/><use xlink:href="#b" x="14.996"/><use xlink:href="#1"/></svg><svg x="164"><use xlink:href="#a"/><use xlink:href="#b" x="45.996"/><use xlink:href="#2"/></svg><svg x="246"><use xlink:href="#a"/><use xlink:href="#b" x="-.004" y="2.146"/><use xlink:href="#2"/></svg><svg x="328"><use xlink:href="#a"/><use xlink:href="#b" x="-.004" y="4.317"/><use xlink:href="#2"/><use xlink:href="#3" y="2.171"/></svg><svg x="410"><use xlink:href="#a"/><use xlink:href="#b" x="-.004" y="8.659"/><use xlink:href="#2"/><use xlink:href="#3" y="2.171"/><use xlink:href="#4" y="6.513"/></svg><svg x="492"><use xlink:href="#a"/><use xlink:href="#b" x="-.004" y="13.001"/><use xlink:href="#2"/><use xlink:href="#3" y="2.171"/><use xlink:href="#4" y="6.513"/><use xlink:href="#5" y="10.855"/></svg><svg x="574"><use xlink:href="#a"/><use xlink:href="#b" x="14.996" y="15.172"/><use xlink:href="#2"/><use xlink:href="#3" y="2.171"/><use xlink:href="#4" y="6.513"/><use xlink:href="#5" y="10.855"/><use xlink:href="#1" y="15.197"/></svg><svg x="656"><use xlink:href="#a"/><use xlink:href="#b" x="55.996" y="15.172"/><use xlink:href="#2"/><use xlink:href="#3" y="2.171"/><use xlink:href="#4" y="6.513"/><use xlink:href="#5" y="10.855"/><use xlink:href="#6" y="15.197"/></svg><svg x="738"><use xlink:href="#a"/><use xlink:href="#b" x="-.004" y="17.343"/><use xlink:href="#2"/><use xlink:href="#3" y="2.171"/><use xlink:href="#4" y="6.513"/><use xlink:href="#5" y="10.855"/><use xlink:href="#6" y="15.197"/></svg><svg x="820"><use xlink:href="#a"/><use xlink:href="#b" x="-.004" y="19.514"/><use xlink:href="#2"/><use xlink:href="#3" y="2.171"/><use xlink:href="#4" y="6.513"/><use xlink:href="#5" y="10.855"/><use xlink:href="#6" y="15.197"/><use xlink:href="#7" y="17.368"/></svg><svg x="902"><use xlink:href="#a"/><use xlink:href="#b" x="-.004" y="23.856"/><use xlink:href="#2"/><use xlink:href="#3" y="2.171"/><use xlink:href="#4" y="6.513"/><use xlink:href="#5" y="10.855"/><use xlink:href="#6" y="15.197"/><use xlink:href="#7" y="17.368"/><use xlink:href="#8" y="21.71"/></svg><svg x="984"><use xlink:href="#a"/><use xlink:href="#b" x="-.004" y="26.027"/><use xlink:href="#2"/><use xlink:href="#3" y="2.171"/><use xlink:href="#4" y="6.513"/><use xlink:href="#5" y="10.855"/><use xlink:href="#6" y="15.197"/><use xlink:href="#7" y="17.368"/><use xlink:href="#8" y="21.71"/><use xlink:href="#9" y="23.881"/></svg><svg x="1066"><use xlink:href="#a"/><use xlink:href="#b" x="-.004" y="28.198"/><use xlink:href="#2"/><use xlink:href="#3" y="2.171"/><use xlink:href="#4" y="6.513"/><use xlink:href="#5" y="10.855"/><use xlink:href="#6" y="15.197"/><use xlink:href="#7" y="17.368"/><use xlink:href="#8" y="21.71"/><use xlink:href="#9" y="23.881"/><use xlink:href="#10" y="26.052"/></svg><svg x="1148"><use xlink:href="#a"/><use xlink:href="#b" x="-.004" y="30.369"/><use xlink:href="#2"/><use xlink:href="#3" y="2.171"/><use xlink:href="#4" y="6.513"/><use xlink:href="#5" y="10.855"/><use xlink:href="#6" y="15.197"/><use xlink:href="#7" y="17.368"/><use xlink:href="#8" y="21.71"/><use xlink:href="#9" y="23.881"/><use xlink:href="#10" y="26.052"/><use xlink:href="#11" y="28.223"/></svg><svg x="1230"><use xlink:href="#a"/><use xlink:href="#b" x="-.004" y="34.711"/><use xlink:href="#2"/><use xlink:href="#3" y="2.171"/><use xlink:href="#4" y="6.513"/><use xlink:href="#5" y="10.855"/><use xlink:href="#6" y="15.197"/><use xlink:href="#7" y="17.368"/><use xlink:href="#8" y="21.71"/><use xlink:href="#9" y="23.881"/><use xlink:href="#10" y="26.052"/><use xlink:href="#11" y="28.223"/><use xlink:href="#12" y="32.565"/></svg><svg x="1312"><use xlink:href="#a"/><use xlink:href="#b" x="14.996" y="36.882"/><use xlink:href="#2"/><use xlink:href="#3" y="2.171"/><use xlink:href="#4" y="6.513"/><use xlink:href="#5" y="10.855"/><use xlink:href="#6" y="15.197"/><use xlink:href="#7" y="17.368"/><use xlink:href="#8" y="21.71"/><use xlink:href="#9" y="23.881"/><use xlink:href="#10" y="26.052"/><use xlink:href="#11" y="28.223"/><use xlink:href="#12" y="32.565"/><use xlink:href="#1" y="36.907"/></svg><svg x="1394"><use xlink:href="#a"/><use xlink:href="#b" x="77.996" y="36.882"/><use xlink:href="#2"/><use xlink:href="#3" y="2.171"/><use xlink:href="#4" y="6.513"/><use xlink:href="#5" y="10.855"/><use xlink:href="#6" y="15.197"/><use xlink:href="#7" y="17.368"/><use xlink:href="#8" y="21.71"/><use xlink:href="#9" y="23.881"/><use xlink:href="#10" y="26.052"/><use xlink:href="#11" y="28.223"/><use xlink:href="#12" y="32.565"/><use xlink:href="#13" y="36.907"/></svg><svg x="1476"><use xlink:href="#a"/><use xlink:href="#b" x="-.004" y="39.053"/><use xlink:href="#2"/><use xlink:href="#3" y="2.171"/><use xlink:href="#4" y="6.513"/><use xlink:href="#5" y="10.855"/><use xlink:href="#6" y="15.197"/><use xlink:href="#7" y="17.368"/><use xlink:href="#8" y="21.71"/><use xlink:href="#9" y="23.881"/><use xlink:href="#10" y="26.052"/><use xlink:href="#11" y="28.223"/><use xlink:href="#12" y="32.565"/><use xlink:href="#13" y="36.907"/></svg><svg x="1558"><use xlink:href="#a"/><use xlink:href="#b" x="-.004" y="41.224"/><use xlink:href="#2"/><use xlink:href="#3" y="2.171"/><use xlink:href="#4" y="6.513"/><use xlink:href="#5" y="10.855"/><use xlink:href="#6" y="15.197"/><use xlink:href="#7" y="17.368"/><use xlink:href="#8" y="21.71"/><use xlink:href="#9" y="23.881"/><use xlink:href="#10" y="26.052"/><use xlink:href="#11" y="28.223"/><use xlink:href="#12" y="32.565"/><use xlink:href="#13" y="36.907"/><use xlink:href="#14" y="39.078"/></svg><svg x="1640"><use xlink:href="#a"/><use xlink:href="#b" x="-.004" y="45.566"/><use xlink:href="#2"/><use xlink:href="#3" y="2.171"/><use xlink:href="#4" y="6.513"/><use xlink:href="#5" y="10.855"/><use xlink:href="#6" y="15.197"/><use xlink:href="#7" y="17.368"/><use xlink:href="#8" y="21.71"/><use xlink:href="#9" y="23.881"/><use xlink:href="#10" y="26.052"/><use xlink:href="#11" y="28.223"/><use xlink:href="#12" y="32.565"/><use xlink:href="#13" y="36.907"/><use xlink:href="#14" y="39.078"/><use xlink:href="#15" y="43.42"/></svg><svg x="1722"><use xlink:href="#a"/><use xlink:href="#b" x="-.004" y="49.908"/><use xlink:href="#2"/><use xlink:href="#3" y="2.171"/><use xlink:href="#4" y="6.513"/><use xlink:href="#5" y="10.855"/><use xlink:href="#6" y="15.197"/><use xlink:href="#7" y="17.368"/><use xlink:href="#8" y="21.71"/><use xlink:href="#9" y="23.881"/><use xlink:href="#10" y="26.052"/><use xlink:href="#11" y="28.223"/><use xlink:href="#12" y="32.565"/><use xlink:href="#13" y="36.907"/><use xlink:href="#14" y="39.078"/><use xlink:href="#15" y="43.42"/><use xlink:href="#16" y="47.762"/></svg><svg x="1804"><use xlink:href="#a"/><use xlink:href="#b" x="-.004" y="54.25"/><use xlink:href="#2"/><use xlink:href="#3" y="2.171"/><use xlink:href="#4" y="6.513"/><use xlink:href="#5" y="10.855"/><use xlink:href="#6" y="15.197"/><use xlink:href="#7" y="17.368"/><use xlink:href="#8" y="21.71"/><use xlink:href="#9" y="23.881"/><use xlink:href="#10" y="26.052"/><use xlink:href="#11" y="28.223"/><use xlink:href="#12" y="32.565"/><use xlink:href="#13" y="36.907"/><use xlink:href="#14" y="39.078"/><use xlink:href="#15" y="43.42"/><use xlink:href="#16" y="47.762"/><use xlink:href="#17" y="52.104"/></svg><svg x="1886"><use xlink:href="#a"/><use xlink:href="#b" x="14.996" y="56.421"/><use xlink:href="#2"/><use xlink:href="#3" y="2.171"/><use xlink:href="#4" y="6.513"/><use xlink:href="#5" y="10.855"/><use xlink:href="#6" y="15.197"/><use xlink:href="#7" y="17.368"/><use xlink:href="#8" y="21.71"/><use xlink:href="#9" y="23.881"/><use xlink:href="#10" y="26.052"/><use xlink:href="#11" y="28.223"/><use xlink:href="#12" y="32.565"/><use xlink:href="#13" y="36.907"/><use xlink:href="#14" y="39.078"/><use xlink:href="#15" y="43.42"/><use xlink:href="#16" y="47.762"/><use xlink:href="#17" y="52.104"/><use xlink:href="#1" y="56.446"/></svg><svg x="1968"><use xlink:href="#a"/><use xlink:href="#b" x="14.996" y="56.421"/><use xlink:href="#2"/><use xlink:href="#3" y="2.171"/><use xlink:href="#4" y="6.513"/><use xlink:href="#5" y="10.855"/><use xlink:href="#6" y="15.197"/><use xlink:href="#7" y="17.368"/><use xlink:href="#8" y="21.71"/><use xlink:href="#9" y="23.881"/><use xlink:href="#10" y="26.052"/><use xlink:href="#11" y="28.223"/><use xlink:href="#12" y="32.565"/><use xlink:href="#13" y="36.907"/><use xlink:href="#14" y="39.078"/><use xlink:href="#15" y="43.42"/><use xlink:href="#16" y="47.762"/><use xlink:href="#17" y="52.104"/><use xlink:href="#1" y="56.446"/></svg></svg></g></g></svg></svg>